<svg xmlns="http://www.w3.org/2000/svg" width="255.92" height="255.92" viewBox="0 0 1400 1400"><defs><style>.cls-1 { fill: #fff; } .cls-1, .cls-10, .cls-11, .cls-2, .cls-3, .cls-4, .cls-5, .cls-6, .cls-7, .cls-8, .cls-9 { fill-rule: evenodd; } .cls-2 { fill: #69ff7a; } .cls-3 { fill: #a8ffb2; } .cls-4 { fill: #19b52b; } .cls-5 { fill: #3fdb51; } .cls-6 { fill: #25c137; } .cls-7 { fill: #32ce44; } .cls-8 { fill: #4ce85e; } .cls-9 { fill: #58f46a; } .cls-10, .cls-11 { fill: none; } .cls-10 { stroke: #fff; stroke-linejoin: round; stroke-width: 23.792px; } .cls-11 { stroke: #f7f7f7; stroke-width: 37.129px; }</style></defs><path id="Relleno_de_color_3" d="M13 1387v-363l160-324L13 373V13h362l325 159 325-159h362v360l-160 327 160 324v363h-362l-325-161-325 161" class="cls-1"/><path id="Relleno_de_color_1" d="M699.48 211.63l-364.43-33.3L49 49h325.23l325.25 162.47v.16zm0 0l386.23-44.74L1350 49h-325.27L699.48 211.48v.16z" class="cls-2"/><path id="Relleno_de_color_2" d="M211.6 699.5l-48 381.88L49 1349.98v-325.22l162.6-325.44zm0 0l-36.56-349.72L48.98 49v325.25l162.6 325.07v.18z" class="cls-3"/><path id="Relleno_de_color_4" d="M1187.36 699.5l46.93-353.54L1349.97 49v325.25l-162.62 325.07v.18zm0 0l31.72 359 130.9 291.5v-325.24l-162.62-325.44v.18z" class="cls-4"/><path id="Relleno_de_color_8" d="M699.48 1187.38l325.25 38.72L1350 1350h-325.27l-325.25-162.8v.18z" class="cls-5"/><path id="Relleno_de_color_5" d="M699.48 1187.38l-325.25 34.96L49 1350h325.23l325.25-162.8v.18zm650.53 162.6L699.5 1187.4V699.23l487.88.27L1350 1349.33v.66z" class="cls-6"/><path id="Forma_1" d="M1350 49L1187.37 699.5l-487.88-.25V211.6L1350 49.34z" class="cls-7"/><path id="Relleno_de_color_6" d="M49 1350l162.6-650.5 487.88-.27V1187l-650.5 162.33v.66z" class="cls-8"/><path id="Relleno_de_color_7" d="M49 49l650.5 162.63v487.6H211.6L49 49.33v-.32z" class="cls-9"/><path id="Relleno_de_color_3-2" d="M699.48 211.63L211.6 699.5l487.88 487.88 487.88-487.9-487.88-488v.15z" class="cls-5"/><path id="Forma_1-2" d="M1065.6 414.82a140.43 140.43 0 0 0 9.3-50.62A142.58 142.58 0 0 0 979.68 230a143.83 143.83 0 0 0-159.1 44.14L747.05 232a102.6 102.6 0 0 0-102.1 0l-73.52 42.14A143.3 143.3 0 0 0 317.1 364.2a140.55 140.55 0 0 0 9.3 50.62l-26.97 15.48a101.67 101.67 0 0 0-51.05 87.85v45.35a101.67 101.67 0 0 0 51.05 87.85l345.53 198.5a102.74 102.74 0 0 0 102.1 0l345.52-198.38a101.63 101.63 0 0 0 51.04-87.85v-45.4a101.66 101.66 0 0 0-51.04-87.92l-26.98-15.48zm-47.35 13.38l56.66 32.55a66.47 66.47 0 0 1 33.4 57.47v45.35a66.47 66.47 0 0 1-33.4 57.47L729.4 819.44a67.27 67.27 0 0 1-66.75 0L317.1 621.03a66.45 66.45 0 0 1-33.38-57.47V518.2a66.44 66.44 0 0 1 33.38-57.46l56.66-32.54a107.13 107.13 0 0 1 32.56-157.18 108.1 108.1 0 0 1 153.18 50.54l103.13-59.2a67.27 67.27 0 0 1 66.75 0l103.13 59.2a107.76 107.76 0 0 1 65.18-59.47 108.25 108.25 0 0 1 121.57 39.06 106.9 106.9 0 0 1-1 127.03zm42.92 159.75a4.73 4.73 0 0 0-2.54-1.13L733 545.58a352.66 352.66 0 0 0-74 0l-325.6 41.24a4.7 4.7 0 0 0-2.52 1.13 29.46 29.46 0 0 0 3.93 2.65L680.3 789a31.73 31.73 0 0 0 31.4 0l345.54-198.38a32.08 32.08 0 0 0 3.93-2.67zM460.4 436.43a72.64 72.64 0 0 0 67.12-44.6 71.94 71.94 0 0 0-15.74-78.7 72.87 72.87 0 0 0-111.76 10.94 71.93 71.93 0 0 0 9.03 91.2 72.85 72.85 0 0 0 51.36 21.16zm-37.3-72.23a37.1 37.1 0 0 1 23.04-34.27 37.45 37.45 0 0 1 40.65 8.04 36.98 36.98 0 0 1-5.66 57.07 37.46 37.46 0 0 1-47.1-4.6 37 37 0 0 1-10.93-26.24zm507.95 72.23a72.65 72.65 0 0 0 67.12-44.6 71.93 71.93 0 0 0-15.75-78.7 72.87 72.87 0 0 0-111.76 10.94 71.92 71.92 0 0 0 9.03 91.2 72.85 72.85 0 0 0 51.35 21.16zm-37.3-72.23a37.1 37.1 0 0 1 23.04-34.27 37.45 37.45 0 0 1 40.63 8.04 36.98 36.98 0 0 1-5.65 57.07 37.46 37.46 0 0 1-47.1-4.6 37 37 0 0 1-10.93-26.24z" class="cls-1"/><path id="_2" d="M330.33 1171.68H552v-63.2H436.36l48.02-33.6q15.6-11.2 27.6-21.62a134.75 134.75 0 0 0 20.4-21.8 84.34 84.34 0 0 0 12.6-24.6 98.83 98.83 0 0 0 4.2-30v-.8a86 86 0 0 0-7.6-36.2 80.94 80.94 0 0 0-21.2-28.2 100.54 100.54 0 0 0-32.6-18.2 126.75 126.75 0 0 0-41.82-6.6 153.36 153.36 0 0 0-36.6 4 116.3 116.3 0 0 0-29.62 11.6 124.2 124.2 0 0 0-25 18.8 241.68 241.68 0 0 0-22.8 25.6l52.4 43.6q16.4-18.8 29-27.4t26.62-8.6q14 0 22.6 7.6t8.6 20.8a39.9 39.9 0 0 1-8.2 24q-8.2 11.2-27.8 26.4l-104.83 80.02v58.4z" class="cls-10"/><path id="Polígono_2" d="M1170.36 1038.34l-369.5 133.34V905z" class="cls-11"/></svg>