<svg xmlns="http://www.w3.org/2000/svg" height="512" id="Haxe" viewBox="0 0 512 512" width="512">
  <path fill="#111" id="Background" fill-rule="evenodd" d="M4.754,507.246V374.491L63.269,256,4.754,136.411V4.754H137.143L256,62.9,374.857,4.754H507.246V136.411L448.731,256l58.515,118.491V507.246H374.857L256,448.366l-118.857,58.88" class="cls-1"/>
  <path fill="#69ff7a" id="Flaps" fill-rule="evenodd" d="M255.81,77.4L122.533,65.217,17.915,17.923H136.86L255.81,77.338V77.4Zm0,0L397.06,61.035l96.656-43.112H374.757L255.81,77.338V77.4Z" class="cls-2"/>
  <path fill="#a8ffb2" data-name="Flaps" id="Flaps-2" fill-rule="evenodd" d="M77.387,255.818L59.832,395.475,17.916,493.71V374.769L77.387,255.75v0.068Zm0,0-13.374-127.9-46.1-110V136.868L77.387,255.75v0.068Z" class="cls-3"/>
  <path fill="#19b52b" data-name="Flaps" id="Flaps-3" fill-rule="evenodd" d="M434.234,255.818L451.4,126.524l42.309-108.6V136.868L434.234,255.75v0.068Zm0,0,11.6,131.294,47.87,106.6V374.769L434.234,255.75v0.068Z" class="cls-4"/>
  <path fill="#3fdb51" data-name="Flaps" id="Flaps-4" fill-rule="evenodd" d="M255.81,434.241L374.757,448.4,493.716,493.71H374.757L255.81,434.174v0.067Z" class="cls-5"/>
  <path fill="#25c137" id="Wing" fill-rule="evenodd" d="M255.81,434.241L136.86,447.027,17.915,493.711H136.86l118.95-59.537v0.067Zm237.906,59.47L255.81,434.242V255.718l178.424,0.1,59.483,237.65v0.243Z" class="cls-6"/>
  <path fill="#32ce44" data-name="Wing" id="Wing-2" fill-rule="evenodd" d="M493.716,17.923L434.233,255.81l-178.423-.092V77.387L493.716,18.044V17.923Z" class="cls-7"/>
  <path fill="#4ce85e" data-name="Wing" id="Wing-3" fill-rule="evenodd" d="M17.915,493.711L77.387,255.818l178.423-.1V434.107l-237.9,59.361v0.243Z" class="cls-8"/>
  <path fill="#58f46a" data-name="Wing" id="Wing-4" fill-rule="evenodd" d="M17.915,17.923L255.81,77.4V255.718H77.387L17.915,18.044V17.923Z" class="cls-9"/>
  <path fill="#3fdb51" id="Center" fill-rule="evenodd" d="M255.81,77.4L77.387,255.818,255.81,434.242,434.234,255.81,255.81,77.338V77.4Z" class="cls-5"/>
  <path fill="#21ba45" data-name="Relleno de color 1" id="Relleno_de_color_1" fill-rule="evenodd" d="M382.325,212.5l22.243,12.768a26.075,26.075,0,0,1,13.1,22.55v17.793a26.075,26.075,0,0,1-13.1,22.55L268.921,366a26.426,26.426,0,0,1-26.2,0L107.07,288.165a26.068,26.068,0,0,1-13.1-22.55V247.822a26.068,26.068,0,0,1,13.1-22.55L129.313,212.5A42.023,42.023,0,0,1,142.1,150.833a42.582,42.582,0,0,1,49.854,5.445,42.117,42.117,0,0,1,10.278,14.39l40.486-23.232a26.426,26.426,0,0,1,26.2,0l40.486,23.232a42.293,42.293,0,0,1,25.586-23.333,42.5,42.5,0,0,1,47.723,15.327,41.924,41.924,0,0,1-.391,49.842h0Z" class="cls-10"/>
  <path fill="#fff" data-name="Relleno de color 4" id="Relleno_de_color_4" fill-rule="evenodd" stroke="#111" d="M163.332,215.736a28.518,28.518,0,0,0,26.346-17.495,28.211,28.211,0,0,0-6.182-30.885,28.613,28.613,0,0,0-43.874,4.3,28.207,28.207,0,0,0,3.546,35.784,28.606,28.606,0,0,0,20.164,8.3h0Zm184.761,0a28.521,28.521,0,0,0,26.347-17.495,28.216,28.216,0,0,0-6.182-30.885,28.616,28.616,0,0,0-43.876,4.3,28.207,28.207,0,0,0,3.546,35.784,28.607,28.607,0,0,0,20.165,8.3h0Z" class="cls-11" stroke-width="7.619px"/>
  <path fill="#fff" data-name="Relleno de color 2" id="Relleno_de_color_2" fill-rule="evenodd" stroke="#111" d="M423.5,275.017L270.346,258.561a138.458,138.458,0,0,0-29.055,0L86.674,275.017c2.7,13.541,8.139,18.944,31.115,35.664L242.27,380.522c1.876,1.317,13.545,2.747,15.707,2.747s12.653-2.607,14.529-3.924l84.427-47.868C414.706,297.161,419.734,293.97,423.5,275.017Z" class="cls-12" stroke-width="9.143px"/>
  <path fill="#111" id="Slippi" fill-rule="evenodd" d="M400.914,207.257a55.1,55.1,0,0,0,3.652-19.861,55.666,55.666,0,0,0-10.294-32.216,56.469,56.469,0,0,0-89.552-3.118l-28.863-16.529a40.294,40.294,0,0,0-40.077,0l-28.864,16.529a56.46,56.46,0,0,0-89.551,3.118,55.682,55.682,0,0,0-10.3,32.216,55.122,55.122,0,0,0,3.653,19.861l-10.59,6.074A39.885,39.885,0,0,0,80.095,247.8v17.793a39.885,39.885,0,0,0,20.038,34.468L235.78,377.942a40.353,40.353,0,0,0,40.077,0L411.5,300.105a39.883,39.883,0,0,0,20.039-34.467V247.822A39.887,39.887,0,0,0,411.5,213.331l-10.589-6.075h0ZM382.325,212.5l22.243,12.768a26.075,26.075,0,0,1,13.1,22.55v17.793a26.075,26.075,0,0,1-13.1,22.55L268.921,366a26.426,26.426,0,0,1-26.2,0L107.07,288.165a26.068,26.068,0,0,1-13.1-22.55V247.822a26.068,26.068,0,0,1,13.1-22.55L129.313,212.5A42.023,42.023,0,0,1,142.1,150.833a42.582,42.582,0,0,1,49.854,5.445,42.117,42.117,0,0,1,10.278,14.39l40.486-23.232a26.426,26.426,0,0,1,26.2,0l40.486,23.232a42.293,42.293,0,0,1,25.586-23.333,42.5,42.5,0,0,1,47.723,15.327,41.924,41.924,0,0,1-.391,49.842h0ZM148.689,187.4a14.553,14.553,0,0,1,9.04-13.446,14.71,14.71,0,0,1,15.958,3.155,14.506,14.506,0,0,1-2.219,22.392,14.715,14.715,0,0,1-18.49-1.81,14.509,14.509,0,0,1-4.289-10.291h0Zm184.76,0a14.551,14.551,0,0,1,9.041-13.446,14.71,14.71,0,0,1,15.958,3.155,14.506,14.506,0,0,1-2.219,22.392,14.716,14.716,0,0,1-18.491-1.81,14.513,14.513,0,0,1-4.289-10.291h0Zm-66.877,11.458,8.294,9.055L260.9,232.189C260.123,211.578,266.572,198.854,266.572,198.854Zm-21.43.11L236.768,208l14.1,24.218C251.654,211.655,245.142,198.964,245.142,198.964Z" class="cls-1"/>
</svg>