<svg xmlns="http://www.w3.org/2000/svg" data-name="Grupo 1" height="1024" id="Grupo_1" viewBox="0 0 1024 1024" width="1024">
  <path fill="#21ba45" id="Play" stroke="#111" fill-rule="evenodd" d="M957.988,509.5l-912,459.494V50Z" class="cls-1" stroke-width="29.167px"/>
  <path fill="#111" id="Vbg" fill-rule="evenodd" d="M582,295H744q24.5,68.993,49,138h1v-2l49-136h160v1L853,670H732Z" class="cls-2"/>
  <path fill="#fff" id="v" fill-rule="evenodd" d="M752.555,639.967h80.057L958.923,325.329H864.19L793.473,523.038,722.757,325.329H626.244Z" class="cls-3"/>
  <path fill="#111" data-name="2bg" id="_2bg" fill-rule="evenodd" d="M502,337c44.342-1.2,77.427,11.855,98.306,32.948C635.89,405.9,640.02,475.686,596,517c37.028,1.371,34.5,20.944,34,62,0,14.3.994,28.8-5,37-3.418,6.569-12.284,10.735-24.35,13.272C559.144,629.068,491.967,629,461,629l-49-1c-22.576-6.206-22-28.759-22-58q0.5-14,1-28c1.715-14.585,40.654-36.065,71-61-12.462.148-23.988-12.227-40-25-20.538-16.384-41.006-30.412-26-57,19.733-27.745,44.446-47.182,76-57C482.5,339.084,490.5,337.916,502,337Z" class="cls-2"/>
  <path fill="#fff" data-name="2" id="_2" fill-rule="evenodd" d="M420.175,598.547H600.011V547.178H506.2l38.953-27.31q12.66-9.1,22.4-17.556a109.543,109.543,0,0,0,16.555-17.719,68.576,68.576,0,0,0,10.225-20,80.431,80.431,0,0,0,3.409-24.384v-0.65a69.98,69.98,0,0,0-6.168-29.423,65.748,65.748,0,0,0-17.2-22.921,81.512,81.512,0,0,0-26.456-14.793,102.636,102.636,0,0,0-33.923-5.365,124.22,124.22,0,0,0-29.7,3.251,94.284,94.284,0,0,0-24.021,9.429,100.714,100.714,0,0,0-20.288,15.281,195.99,195.99,0,0,0-18.5,20.807L464,451.268Q477.3,435.991,487.532,429a37.639,37.639,0,0,1,21.587-6.99q11.359,0,18.341,6.178t6.979,16.906a32.448,32.448,0,0,1-6.654,19.507q-6.658,9.106-22.561,21.458L420.175,551.08v47.467Z" class="cls-3"/>
  <path fill="#111" id="Sbg" fill-rule="evenodd" d="M199,288c80.895-4.15,142.47,18.639,189,67l-61,89c69.151,30.765,77.862,127.376,33,181-48.252,62.406-164.427,65.794-244,31-31.033-13.569-57.3-35.733-80-58l3-3,68-82c-15.1-13.373-29.389-25.97-37-47-29.251-80.819,22.36-144.82,75-166C161.208,293.479,179.051,291.058,199,288Z" class="cls-2"/>
  <path fill="#fff" id="s" fill-rule="evenodd" d="M280.427,641.125q23.774-7.059,40.7-20.5a93.951,93.951,0,0,0,26.3-32.566q9.369-19.12,9.375-43.723v-0.913q0-22.308-8.232-38.483a77.58,77.58,0,0,0-23.781-27.555Q309.236,466,287.058,458.025a392.076,392.076,0,0,0-49.621-13.887q-16.464-3.636-27.212-7.058a95.634,95.634,0,0,1-16.921-6.83q-6.174-3.422-8.69-7.521a17.884,17.884,0,0,1-2.515-9.561v-0.912q0-8.652,8-14.572t24.011-5.925q21.49,0,44.59,7.985a180.308,180.308,0,0,1,45.048,23.5l44.362-62.7a185.326,185.326,0,0,0-58.311-31.9q-32.243-10.789-73.4-10.793-28.812,0-51.679,7.514t-39.1,21.181a90.907,90.907,0,0,0-24.7,32.338,98.091,98.091,0,0,0-8.461,40.993v0.9q0,24.6,9.376,41.221a82.556,82.556,0,0,0,25.611,27.783Q143.676,500.944,165.635,508T213.2,520.976q16.464,3.647,26.754,7.065a87.606,87.606,0,0,1,16.465,7.058q6.174,3.646,8.46,7.514a17.171,17.171,0,0,1,2.287,8.883V552.4q0,10.479-9.375,16.176t-27.212,5.689q-55.8,0-103.816-38.327L77.368,594.927a197.941,197.941,0,0,0,68.372,39.945,249.027,249.027,0,0,0,81.636,13.31Q256.638,648.182,280.427,641.125Z" class="cls-3"/>
</svg>